<svg width="114" height="50" viewBox="0 0 114 50" fill="none" xmlns="http://www.w3.org/2000/svg">
<path d="M6.82788 40.4531C2.84795 38.223 0.381348 33.776 0.381348 28.8567C0.381348 21.6811 5.68395 15.8567 12.1901 15.8567C13.0957 15.8567 13.9775 15.9748 14.8592 16.1847C16.313 7.10696 23.5817 0.246216 32.1136 0.246216C40.4428 0.246216 47.5328 6.73966 49.2487 15.4632C50.905 14.3219 52.8116 13.7185 54.8135 13.7185C60.6404 13.7185 65.3948 18.9395 65.3948 25.3673H62.6184C62.6184 20.6317 59.1151 16.7881 54.8254 16.7881C52.6924 16.7881 50.7025 17.7195 49.2249 19.4117L47.0443 21.891L46.8417 18.4541C46.3055 9.9667 39.847 3.31584 32.1016 3.31584C24.4397 3.31584 17.9812 9.90111 17.3973 18.3098L17.2543 20.3824L15.5027 19.6216C14.4422 19.1625 13.3221 18.9263 12.1782 18.9263C7.19728 18.9263 3.14585 23.3865 3.14585 28.8698C3.14585 32.6347 5.04049 36.0192 8.07906 37.7376L6.82788 40.4531Z" fill="#0090BB"/>
<path d="M13.2983 46.9596C13.62 47.1695 13.9656 47.3401 14.3588 47.4844C15.0261 47.7467 15.9317 47.9828 16.9207 47.9828C19.5542 47.9828 21.6037 46.6317 21.6037 43.3259V41.8567C21.6037 41.5288 21.6275 41.332 21.6514 41.1221C21.6752 41.004 21.6752 40.886 21.6752 40.7941H21.6275C20.8053 42.4339 19.4707 43.4965 17.3616 43.4965C13.763 43.4965 11.3917 40.3613 11.3917 35.9273C11.3917 31.5066 13.5962 28.4763 17.1948 28.4763C19.1133 28.4763 20.9722 29.2634 21.699 31.0868H21.7467C21.7467 31.0605 21.7467 31.0343 21.7229 30.9425C21.699 30.8507 21.699 30.7064 21.699 30.444C21.699 29.3552 22.0923 28.8305 23.2481 28.8305H25.6432V30.4834H23.9869C23.5818 30.4834 23.403 30.6932 23.403 31.0999V43.2341C23.403 47.9173 20.2572 49.7407 16.9565 49.7407C15.4431 49.7407 13.8941 49.3078 12.5952 48.5732L13.2983 46.9596ZM21.6395 35.9405C21.6395 31.6246 19.7448 30.2866 17.4093 30.2866C14.7759 30.2866 13.2864 32.3724 13.2864 35.9142C13.2864 39.4561 14.9903 41.7124 17.6595 41.7124C19.7686 41.7124 21.6395 40.2825 21.6395 35.9405Z" fill="#383838"/>
<path d="M27.7642 41.9485H29.8376V31.1392C29.8376 30.6932 29.647 30.4965 29.2537 30.4965H27.4425V28.8567H29.9687C31.1126 28.8567 31.5893 29.3552 31.5893 30.5227V31.5197C31.5893 31.8476 31.5893 32.11 31.5654 32.3068C31.5416 32.4248 31.5416 32.5429 31.5416 32.6347H31.5893C32.2566 30.4046 33.7222 28.7124 35.8194 28.7124C36.0101 28.7124 36.1888 28.7124 36.3199 28.7386L36.5582 28.7911V30.7588C36.4748 30.7588 36.4271 30.7588 36.3437 30.7326C36.2603 30.7063 36.1054 30.7063 35.8671 30.7063C32.8524 30.7063 31.6369 34.4319 31.6369 37.3572V41.9616H33.7103V43.6014H27.7642V41.9485Z" fill="#383838"/>
<path d="M44.7206 28.4894C48.4264 28.4894 50.3449 31.6246 50.3449 35.2846C50.3449 35.4945 50.3449 35.665 50.3211 35.8749L50.2734 36.2291H39.9899C40.0734 40.0071 42.4089 42.1453 45.1853 42.1453C46.4365 42.1453 47.4255 41.6993 48.1405 41.2664C48.5694 41.004 48.9388 40.7154 49.2606 40.3875L50.0828 41.8829C49.6776 42.2634 49.2606 42.5913 48.7482 42.9062C47.8902 43.4571 46.6391 43.9294 45.1257 43.9294C41.1577 43.9294 38.1191 40.7679 38.1191 36.216C38.1191 31.4016 41.0981 28.4894 44.7206 28.4894ZM48.4503 34.773C48.3669 31.6377 46.6391 30.1685 44.6729 30.1685C42.4327 30.1685 40.4904 31.782 40.0614 34.773H48.4503Z" fill="#383838"/>
<path d="M53.2405 47.2876C53.3716 47.4319 53.5622 47.55 53.7529 47.6418C54.0746 47.8517 54.5274 47.996 55.0279 47.996C56.2314 47.996 57.0774 46.9465 57.5898 45.6478L58.3405 43.6801L53.5384 30.4834H51.7867V28.8436H57.4111V30.4834H55.4688L58.984 40.5318C59.0674 40.7942 59.1151 41.0303 59.1389 41.2664L59.1866 41.5944H59.27C59.27 41.5025 59.2938 41.3845 59.3176 41.2664C59.401 41.0565 59.4487 40.7942 59.5321 40.5318L63.0354 30.4834H61.0931V28.8436H66.634V30.4834H64.8705L59.1746 46.3169C58.4001 48.4289 56.9702 49.7407 55.0756 49.7407C54.3248 49.7407 53.6933 49.5308 53.2405 49.3078C52.9783 49.1635 52.74 49.0192 52.5494 48.8618L53.2405 47.2876Z" fill="#383838"/>
<path d="M69.7203 30.4834H67.3252V28.8436H69.7441V24.7639H71.5315V28.8436H74.9157V30.4834H71.5315V38.0525C71.5315 41.4763 73.5334 41.9748 74.5701 41.9748C74.8084 41.9748 74.9395 41.9748 75.0229 41.9486C75.1063 41.9223 75.154 41.9223 75.1778 41.9223V43.6539C75.0944 43.6539 75.0467 43.6539 74.9633 43.6801C74.8799 43.7064 74.7012 43.7064 74.4033 43.7064C72.8542 43.7064 69.7203 43.1554 69.7203 38.223V30.4834Z" fill="#383838"/>
<path d="M77.0963 40.9385H79.1816V27.0727H77.0963V24.4097H84.508V27.0727H82.3989V32.6216H90.3349V27.0727H88.2139V24.4097H95.6376V27.0727H93.5523V40.9385H95.6376V43.5883H88.2139V40.9385H90.3349V35.4551H82.3989V40.9385H84.508V43.5883H77.0963V40.9385Z" fill="#EE7928"/>
<path d="M98.0923 40.9384H100.178V27.0727H98.0923V24.3966H105.778C107.053 24.3966 108.114 24.4753 109.091 24.8032C111.057 25.5378 112.308 27.2301 112.308 29.9324C112.308 32.6347 111.057 34.4975 109.019 35.2583V35.3108L109.317 35.56C109.484 35.7437 109.71 35.9667 109.877 36.3209L111.891 40.3219C112.165 40.8335 112.475 40.9384 113.071 40.9384H113.631V43.5883H111.593C110.175 43.5883 109.698 43.2603 109.162 42.1584L106.684 37.2129C106.314 36.4783 105.993 36.2422 104.992 36.2422H103.395V40.9384H105.409V43.5883H98.0923V40.9384ZM106.29 33.4087C107.983 33.4087 109.091 32.3068 109.091 30.2472C109.091 28.9748 108.674 28.0303 107.72 27.5974C107.256 27.3481 106.588 27.2432 105.754 27.2432H103.395V33.4087H106.29Z" fill="#EE7928"/>
</svg>
