<?xml version="1.0" encoding="UTF-8"?>
<!-- Generator: Adobe Illustrator 18.0.0, SVG Export Plug-In . SVG Version: 6.00 Build 0)  -->
<!DOCTYPE svg PUBLIC "-//W3C//DTD SVG 1.1//EN" "http://www.w3.org/Graphics/SVG/1.1/DTD/svg11.dtd">
<svg version="1.1" id="Layer_1" xmlns="http://www.w3.org/2000/svg" xmlns:xlink="http://www.w3.org/1999/xlink" x="0px" y="0px" viewBox="0 0 288 108" enable-background="new 0 0 288 108" xml:space="preserve">
<g>
	<g>
		<path fill="#179BD7" d="M46.5,11.4v66.3H31.6l-8.8-30.1v30.1H8.6V11.4h14.2l9.5,29.9V11.4H46.5z"/>
		<path fill="#179BD7" d="M92,11.4v44.3c0,5-0.2,8.6-0.5,10.6c-0.3,2-1.3,4.1-2.9,6.3c-1.6,2.1-3.7,3.8-6.3,4.9    c-2.6,1.1-5.7,1.7-9.2,1.7c-3.9,0-7.4-0.7-10.3-2c-3-1.3-5.2-3-6.7-5.1c-1.5-2.1-2.4-4.3-2.6-6.7c-0.3-2.3-0.4-7.2-0.4-14.7V11.4    h17v49.7c0,2.9,0.2,4.7,0.5,5.5c0.3,0.8,0.9,1.2,1.9,1.2c1.1,0,1.8-0.4,2.1-1.3c0.3-0.9,0.5-3,0.5-6.3V11.4H92z"/>
		<path fill="#179BD7" d="M136.6,11.4v66.3h-14.9l-8.8-30.1v30.1H98.6V11.4h14.2l9.5,29.9V11.4H136.6z"/>
		<path fill="#179BD7" d="M183.1,40.3h-17V28.7c0-3.4-0.2-5.4-0.5-6.3c-0.4-0.8-1.2-1.2-2.4-1.2c-1.4,0-2.3,0.5-2.7,1.5    c-0.4,1-0.6,3.2-0.6,6.6v30.8c0,3.2,0.2,5.3,0.6,6.3c0.4,1,1.2,1.5,2.5,1.5c1.3,0,2.1-0.5,2.5-1.5c0.4-1,0.6-3.3,0.6-6.9v-8.3h17    v2.6c0,6.9-0.5,11.7-1.4,14.6c-1,2.9-3.1,5.4-6.3,7.5c-3.3,2.2-7.3,3.2-12.1,3.2c-5,0-9.1-0.9-12.3-2.7c-3.2-1.8-5.4-4.4-6.4-7.6    c-1.1-3.2-1.6-8.1-1.6-14.6V34.8c0-4.8,0.2-8.4,0.5-10.7c0.3-2.4,1.3-4.7,2.9-6.9c1.6-2.2,3.8-4,6.7-5.2c2.8-1.3,6.1-1.9,9.8-1.9    c5,0,9.1,1,12.4,2.9c3.3,2,5.4,4.4,6.4,7.3c1,2.9,1.5,7.5,1.5,13.7V40.3z"/>
	</g>
	<g>
		<linearGradient id="SVGID_1_" gradientUnits="userSpaceOnUse" x1="186.9976" y1="86.6631" x2="221.6765" y2="86.6631">
			<stop offset="0" style="stop-color:#2B7CAE"/>
			<stop offset="1" style="stop-color:#2396D1"/>
		</linearGradient>
		<path fill="url(#SVGID_1_)" d="M187,88.8c3.6-5,9.4-12.2,15.3-20.2l19.3,13.2l-18.1,22.8L187,88.8z"/>
		<linearGradient id="SVGID_2_" gradientUnits="userSpaceOnUse" x1="206.9446" y1="59.2348" x2="253.9391" y2="59.2348">
			<stop offset="0" style="stop-color:#2B7CAE"/>
			<stop offset="1" style="stop-color:#2396D1"/>
		</linearGradient>
		<path fill="url(#SVGID_2_)" d="M206.9,63.8c6.6-8,13.6-15.5,21.8-21.7c7.7,3.5,16.6,7,25.2,10.6c-9.3,6.8-18.3,14.7-26.4,23.7    C221,72.6,214.2,68.4,206.9,63.8z"/>
		<linearGradient id="SVGID_3_" gradientUnits="userSpaceOnUse" x1="234.6019" y1="35.7757" x2="282.8431" y2="35.7757">
			<stop offset="0" style="stop-color:#2B7CAE"/>
			<stop offset="1" style="stop-color:#2396D1"/>
		</linearGradient>
		<path fill="url(#SVGID_3_)" d="M234.6,38.6c7.1-6.5,14.5-12.1,22.4-16.2c9.4,3.6,18.1,7.3,25.9,11.1c-9.2,4.4-17.4,9.5-24.3,15.6    L234.6,38.6z"/>
		<path fill="#5F6060" d="M189.3,53l17.3-17.9l16.8,5.5c-6.8,5.6-13.6,12.7-20.6,21.2L189.3,53z"/>
		<path fill="#5F6060" d="M211.8,30.8l19.7-15.1l20.3,5.4c-6.3,4.8-15.3,9.3-22.5,15.5L211.8,30.8z"/>
		<path fill="#959592" d="M207.4,29.9L193.8,25l17.3-15.1l15.2,4.6C219.5,19.4,213.3,24.6,207.4,29.9z"/>
	</g>
	<g>
		<path fill="#6D6E71" d="M15.7,91.1c-0.3-0.1-0.7-0.2-1.3-0.2c-1.4,0-2.2,1-2.2,2.3c0,1.4,1,2.2,2.3,2.2c0.6,0,1-0.1,1.4-0.2    l0.2,1.4c-0.4,0.2-1.2,0.3-2.1,0.3c-2.5,0-4.1-1.4-4.1-3.7c0-2.2,1.6-3.8,4.4-3.8c0.7,0,1.4,0.1,1.8,0.3L15.7,91.1z"/>
		<path fill="#6D6E71" d="M21.7,90.3c0.6-0.8,1.5-1,2.3-1c1.5,0,2.7,0.9,2.7,3.1v4.3h-2.3v-4.2c0-0.9-0.3-1.6-1.3-1.6    c-0.6,0-1.4,0.3-1.4,1.4v4.4h-2.3V86.2h2.3L21.7,90.3L21.7,90.3z"/>
		<path fill="#6D6E71" d="M38.1,93c0,2.8-2.1,3.8-4,3.8c-2.3,0-3.9-1.4-3.9-3.7c0-2.4,1.7-3.8,4-3.8C36.6,89.3,38.1,90.8,38.1,93z     M34.2,90.7c-1.2,0-1.7,1.3-1.7,2.4c0,1.3,0.6,2.4,1.7,2.4c1.1,0,1.6-1.1,1.6-2.4C35.8,91.9,35.4,90.7,34.2,90.7z"/>
		<path fill="#6D6E71" d="M49.2,93c0,2.8-2.1,3.8-4,3.8c-2.3,0-3.9-1.4-3.9-3.7c0-2.4,1.7-3.8,4-3.8C47.7,89.3,49.2,90.8,49.2,93z     M45.2,90.7c-1.2,0-1.7,1.3-1.7,2.4c0,1.3,0.6,2.4,1.7,2.4c1.1,0,1.6-1.1,1.6-2.4C46.9,91.9,46.4,90.7,45.2,90.7z"/>
		<path fill="#6D6E71" d="M52.7,95c0.4,0.2,1.3,0.5,2,0.5c0.8,0,1.2-0.3,1.2-0.7c0-0.4-0.3-0.7-1.2-1c-1.6-0.5-2.2-1.3-2.2-2.1    c0-1.3,1.2-2.3,3.1-2.3c0.9,0,1.6,0.2,2.1,0.4l-0.4,1.4c-0.4-0.2-1-0.4-1.6-0.4c-0.7,0-1.1,0.3-1.1,0.7c0,0.4,0.3,0.6,1.3,1    c1.4,0.5,2.1,1.2,2.1,2.2c0,1.4-1.2,2.3-3.3,2.3c-0.9,0-1.8-0.2-2.4-0.5L52.7,95z"/>
		<path fill="#6D6E71" d="M62.7,88.5c-0.7,0-1.2-0.4-1.2-1c0-0.6,0.5-1,1.2-1c0.7,0,1.2,0.4,1.2,1C63.9,88.1,63.4,88.5,62.7,88.5z     M63.8,89.5v7.3h-2.3v-7.3H63.8z"/>
		<path fill="#6D6E71" d="M69.9,90.5c0.4-0.5,1.2-1.1,2.5-1.1c1.6,0,2.8,0.9,2.8,3v4.4h-2.3v-4.2c0-0.9-0.3-1.6-1.3-1.6    c-0.6,0-1.4,0.4-1.4,1.5v4.3h-2.3v-5.1c0-0.8,0-1.5-0.1-2.2h1.9L69.9,90.5L69.9,90.5z"/>
		<path fill="#6D6E71" d="M84.4,89.5h2c0,0.5-0.1,1.2-0.1,2.2v4.1c0,1.4-0.2,4.1-4.3,4.1c-1,0-2-0.2-2.7-0.5l0.4-1.5    c0.5,0.2,1.3,0.5,2.2,0.5c1.3,0,2.1-0.6,2.1-2v-0.5h0c-0.4,0.6-1.2,0.9-2.1,0.9c-2,0-3.3-1.6-3.3-3.5c0-2.4,1.6-3.8,3.5-3.8    c1.1,0,1.8,0.4,2.1,1h0L84.4,89.5z M84.1,92.3c0-0.9-0.7-1.5-1.4-1.5c-1,0-1.7,0.9-1.7,2.3c0,1.3,0.6,2.1,1.7,2.1    c0.5,0,1.4-0.3,1.4-1.5V92.3z"/>
		<path fill="#6D6E71" d="M97.7,90.7c0.4-0.9,1.3-1.4,2.1-1.4c0.2,0,0.4,0,0.5,0v1.8c-0.2,0-0.4,0-0.6,0c-1,0-1.8,0.6-1.8,1.8v3.8    h-2.3v-5c0-0.9,0-1.6-0.1-2.3h1.9L97.7,90.7L97.7,90.7z"/>
		<path fill="#6D6E71" d="M104.7,88.5c-0.7,0-1.2-0.4-1.2-1c0-0.6,0.5-1,1.2-1c0.7,0,1.2,0.4,1.2,1    C105.9,88.1,105.4,88.5,104.7,88.5z M105.8,89.5v7.3h-2.3v-7.3H105.8z"/>
		<path fill="#6D6E71" d="M115.1,89.5h2c0,0.5-0.1,1.2-0.1,2.2v4.1c0,1.4-0.2,4.1-4.3,4.1c-1,0-2-0.2-2.7-0.5l0.4-1.5    c0.5,0.2,1.3,0.5,2.2,0.5c1.3,0,2.1-0.6,2.1-2v-0.5h0c-0.4,0.6-1.2,0.9-2.1,0.9c-2,0-3.3-1.6-3.3-3.5c0-2.4,1.6-3.8,3.5-3.8    c1.1,0,1.8,0.4,2.1,1h0L115.1,89.5z M114.8,92.3c0-0.9-0.7-1.5-1.4-1.5c-1,0-1.7,0.9-1.7,2.3c0,1.3,0.6,2.1,1.7,2.1    c0.5,0,1.4-0.3,1.4-1.5V92.3z"/>
		<path fill="#6D6E71" d="M123.4,90.3c0.6-0.8,1.5-1,2.3-1c1.5,0,2.7,0.9,2.7,3.1v4.3h-2.3v-4.2c0-0.9-0.3-1.6-1.3-1.6    c-0.6,0-1.4,0.3-1.4,1.4v4.4h-2.3V86.2h2.3L123.4,90.3L123.4,90.3z"/>
		<path fill="#6D6E71" d="M132.7,89.5v-1.3l2.2-0.6v1.9h1.9v1.4h-1.9V94c0,0.9,0.3,1.2,1,1.2c0.3,0,0.5,0,0.7-0.1l0,1.5    c-0.3,0.1-0.9,0.2-1.5,0.2c-2.4,0-2.5-1.8-2.5-2.6v-3.3h-1.1v-1.4H132.7z"/>
		<path fill="#6D6E71" d="M154.3,89.5h2.2l-2.5,7.3h-2l-0.9-2.8c-0.2-0.7-0.4-1.4-0.5-2.3h0c-0.2,0.9-0.3,1.6-0.6,2.3l-0.9,2.8h-2    l-2.4-7.3h2.3l0.7,3.2c0.2,0.8,0.3,1.6,0.5,2.3h0c0.2-0.8,0.4-1.6,0.6-2.3l0.9-3.2h1.8l0.9,3.1c0.2,0.8,0.4,1.6,0.6,2.4h0    c0.1-0.8,0.3-1.6,0.5-2.4L154.3,89.5z"/>
		<path fill="#6D6E71" d="M159.8,89.9c0.6-0.3,1.6-0.6,2.9-0.6c2.6,0,3.4,1.4,3.4,3V95c0,0.6,0,1.3,0.1,1.7h-2l-0.1-0.8h0    c-0.5,0.6-1.3,0.9-2.3,0.9c-1.6,0-2.5-1-2.5-2.2c0-1.9,1.9-2.7,4.6-2.7c0-0.7-0.3-1.3-1.5-1.3c-0.8,0-1.5,0.2-2.1,0.5L159.8,89.9z     M163.9,93.2c-1.2,0-2.5,0.2-2.5,1.3c0,0.7,0.5,1,1.1,1c0.5,0,1.4-0.3,1.4-1.3V93.2z"/>
		<path fill="#6D6E71" d="M174.8,89.5h2.3l-1.9,5c-0.9,2.3-1.7,3.6-2.6,4.4c-0.8,0.7-1.7,0.9-2.2,1l-0.6-1.6    c0.4-0.1,0.8-0.3,1.2-0.5c0.7-0.5,1.1-1.2,1.1-1.3c0-0.1,0-0.2-0.1-0.3l-2.8-6.7h2.5l1.2,3.8c0.1,0.4,0.3,1,0.4,1.4h0    c0.1-0.4,0.2-0.9,0.3-1.4L174.8,89.5z"/>
	</g>
</g>
</svg>