<svg height="19" viewBox="0 0 139 19" class="logo" data-v-02376868="" data-v-865af4ea=""><path fill-rule="evenodd" clip-rule="evenodd" d="M6.06 7.127C7.126 7.127 7.737 6.547 7.737 5.534C7.737 4.58 7.08 3.94 6.102 3.94H3.685V2.15C3.685 0.858999 2.758 0.183999 1.842 0.183999C0.927 0.182999 0 0.858999 0 2.15V14.496C0 17.463 1.183 18.786 3.834 18.786C5.271 18.786 6.093 18.417 6.703 18.058C7.17 17.798 7.336 17.248 7.336 16.82C7.336 16.026 6.806 15.141 6.043 15.141C5.88231 15.1426 5.7243 15.1824 5.582 15.257C5.382 15.349 5.107 15.475 4.705 15.475C4.23 15.475 3.685 15.307 3.685 13.998V7.128H6.061L6.06 7.127Z" data-v-02376868=""></path> <path fill-rule="evenodd" clip-rule="evenodd" d="M14.582 6.628C15.048 6.458 15.512 6.372 15.96 6.372C17.493 6.372 18.565 7.362 19.096 8.349L12.23 10.848C11.916 9.364 12.348 7.441 14.582 6.628ZM21.956 13.482C21.5742 13.4883 21.206 13.6244 20.912 13.868L20.86 13.914C20.1992 14.4978 19.4318 14.9484 18.6 15.241C17.9895 15.4714 17.3435 15.5932 16.691 15.601C15.099 15.601 13.761 14.75 13.074 13.314L21.545 10.231C22.879 9.745 23.058 8.759 22.781 7.997C21.747 5.157 19.311 3.392 16.423 3.392C15.481 3.392 14.502 3.574 13.513 3.934C11.341 4.724 9.795 6.15 9.039 8.056C8.355 9.784 8.372 11.816 9.085 13.776C10.24 16.95 12.697 18.77 15.826 18.77C16.4454 18.7672 17.063 18.7012 17.669 18.573C18.2208 18.4602 18.7636 18.3071 19.293 18.115C20.71 17.6 22.001 16.855 23.025 15.962L23.035 15.954L23.043 15.945C23.383 15.56 23.518 15.101 23.423 14.653C23.283 13.985 22.653 13.482 21.956 13.482Z" data-v-02376868=""></path> <path fill-rule="evenodd" clip-rule="evenodd" d="M36.172 11.135C36.172 13.295 34.945 15.475 32.205 15.475C29.857 15.475 28.28 13.748 28.28 11.176C28.28 8.556 29.874 6.796 32.246 6.796C34.2 6.796 36.172 8.137 36.172 11.136V11.135ZM38.097 3.484C37.005 3.484 36.213 4.259 36.213 5.326V5.385C35.128 4.155 33.52 3.484 31.624 3.484C27.345 3.484 24.471 6.559 24.471 11.135C24.471 15.712 27.295 18.787 31.5 18.787C33.56 18.787 35.24 18.038 36.296 16.665V16.945C36.296 18.303 37.226 18.787 38.096 18.787C39.182 18.787 39.856 18.081 39.856 16.944V5.326C39.856 4.207 39.166 3.484 38.096 3.484" data-v-02376868=""></path> <path fill-rule="evenodd" clip-rule="evenodd" d="M59.272 3.484C57.108 3.484 55.434 4.442 54.618 6.129C53.722 4.396 52.112 3.484 49.936 3.484C48.316 3.484 46.867 4.126 46.01 5.191C45.984 4.198 45.218 3.484 44.168 3.484C43.231 3.484 42.284 4.079 42.284 5.409V16.944C42.284 18.133 42.939 18.787 44.127 18.787C45.307 18.787 46.011 18.098 46.011 16.944V10.056C46.011 7.782 47.024 6.629 49.023 6.629C50.986 6.629 51.787 7.719 51.787 10.389V16.903C51.787 18.118 52.441 18.787 53.629 18.787C54.826 18.787 55.512 18.1 55.512 16.903V10.47C55.512 7.885 56.512 6.628 58.567 6.628C60.504 6.628 61.33 7.778 61.33 10.47V16.902C61.33 18.117 61.984 18.786 63.172 18.786C64.37 18.786 65.056 18.099 65.056 16.902V10.47C65.056 5.834 63.11 3.483 59.272 3.483" data-v-02376868=""></path> <path fill-rule="evenodd" clip-rule="evenodd" d="M87.543 3.484C86.724 3.484 86.039 4.074 85.711 5.058L82.565 13.947L79.458 5.1C79.121 4.13 78.695 3.484 77.709 3.484C76.656 3.484 76.267 4.053 75.919 5.1L72.812 13.947L69.667 5.061C69.338 4.074 68.653 3.484 67.834 3.484C67.051 3.484 66.24 4.127 66.24 5.202C66.24 5.546 66.32 5.889 66.503 6.347L70.735 17.137C71.14 18.127 71.648 18.787 72.813 18.787C74.088 18.787 74.573 17.902 74.852 17.131L77.707 9.349L80.482 17.126C80.849 18.228 81.55 18.786 82.564 18.786C83.532 18.786 84.245 18.232 84.684 17.134L88.871 6.314C89.053 5.906 89.137 5.553 89.137 5.202C89.137 4.222 88.452 3.484 87.543 3.484Z" data-v-02376868=""></path> <path fill-rule="evenodd" clip-rule="evenodd" d="M97.018 15.848C94.571 15.848 93.051 14.042 93.051 11.135C93.051 8.322 94.608 6.505 97.018 6.505C99.428 6.505 100.985 8.322 100.985 11.135C100.985 13.998 99.428 15.848 97.018 15.848ZM97.018 3.525C94.601 3.525 92.6 4.319 91.229 5.82C90.002 7.166 89.325 9.053 89.325 11.135C89.325 13.22 90.001 15.115 91.229 16.47C92.601 17.986 94.603 18.787 97.019 18.787C102.696 18.787 104.711 14.665 104.711 11.135C104.711 7.625 102.696 3.525 97.018 3.525Z" data-v-02376868=""></path> <path fill-rule="evenodd" clip-rule="evenodd" d="M113.711 3.484C113.005 3.48023 112.306 3.62974 111.663 3.92221C111.021 4.21467 110.449 4.64313 109.988 5.178C109.95 4.71685 109.74 4.28676 109.4 3.973C109.06 3.65924 108.615 3.4847 108.152 3.484C107.119 3.484 106.309 4.294 106.309 5.326V16.944C106.309 18.154 107.236 18.787 108.152 18.787C109.067 18.787 109.994 18.154 109.994 16.944V11.425C109.994 8.093 110.907 6.671 113.048 6.671C113.389 6.671 113.587 6.716 113.778 6.761C113.947 6.8 114.106 6.837 114.334 6.837C115.213 6.837 115.803 6.18 115.803 5.202C115.803 4.158 114.982 3.484 113.711 3.484Z" data-v-02376868=""></path> <path fill-rule="evenodd" clip-rule="evenodd" d="M124.3 11.174L128.324 6.988C128.884 6.428 129.413 5.898 129.413 5.16C129.413 4.205 128.692 3.484 127.736 3.484C126.987 3.484 126.456 4.058 125.943 4.614L121.073 9.646V2.026C121.073 1.53711 120.879 1.06824 120.533 0.722448C120.188 0.376659 119.719 0.182264 119.23 0.181999C118.742 0.182528 118.273 0.376733 117.928 0.722032C117.582 1.06733 117.388 1.53554 117.387 2.024V16.944C117.387 17.959 118.213 18.785 119.23 18.785C119.718 18.7845 120.187 18.5902 120.532 18.2449C120.877 17.8996 121.071 17.4314 121.072 16.943V12.42L125.946 17.489C126.032 17.575 126.116 17.663 126.2 17.75C126.689 18.26 127.194 18.787 127.943 18.787C128.829 18.787 129.578 18.039 129.578 17.153C129.578 16.509 129.141 16.018 128.694 15.571L124.298 11.175L124.3 11.174Z" data-v-02376868=""></path> <path fill-rule="evenodd" clip-rule="evenodd" d="M134.949 12.33C134.092 12.3311 133.271 12.6719 132.665 13.2778C132.059 13.8837 131.718 14.7051 131.717 15.562C131.718 16.4189 132.059 17.2403 132.665 17.8462C133.271 18.4521 134.092 18.7929 134.949 18.794C135.806 18.7932 136.628 18.4525 137.234 17.8466C137.84 17.2406 138.181 16.419 138.182 15.562C138.181 14.705 137.84 13.8834 137.234 13.2774C136.628 12.6715 135.806 12.3308 134.949 12.33Z" class="dot" data-v-02376868=""></path></svg>