<svg width="90" height="95" viewBox="0 0 90 95" fill="none" xmlns="http://www.w3.org/2000/svg">
<path fill-rule="evenodd" clip-rule="evenodd" d="M12.4138 25.3333C19.2697 25.3333 24.8276 19.6623 24.8276 12.6667C24.8276 5.67106 19.2697 0 12.4138 0C5.55784 0 0 5.67106 0 12.6667C0 19.6623 5.55784 25.3333 12.4138 25.3333ZM12.4138 23.2222C18.1271 23.2222 22.7586 18.4963 22.7586 12.6667C22.7586 6.83699 18.1271 2.11111 12.4138 2.11111C6.70051 2.11111 2.06897 6.83699 2.06897 12.6667C2.06897 18.4963 6.70051 23.2222 12.4138 23.2222Z" fill="#00A4E1"/>
<path d="M7.24133 18.4722L12.4137 14.25V6.33334" stroke="#00A6E1" stroke-width="2"/>
<rect x="15.5172" y="52.7778" width="5.17241" height="2.11111" fill="#7EC024"/>
<rect x="15.5172" y="46.4445" width="5.17241" height="2.11111" fill="#7EC024"/>
<rect x="15.5172" y="39.0555" width="5.17241" height="2.11111" fill="#7EC024"/>
<rect x="15.5172" y="32.7222" width="5.17241" height="2.11111" fill="#7EC024"/>
<rect x="24.8276" y="32.7222" width="28.9655" height="2.11111" fill="#00A5E1"/>
<rect x="24.8276" y="39.0555" width="28.9655" height="2.11111" fill="#00A5E1"/>
<rect x="24.8276" y="46.4445" width="28.9655" height="2.11111" fill="#00A5E1"/>
<rect x="24.8276" y="52.7778" width="20.6897" height="2.11111" fill="#00A5E1"/>
<path d="M69.6346 77.3266L74.3389 82.1268C73.6203 83.5253 73.5462 84.9162 74.3019 85.6873L82.8883 94.4486C83.97 95.5523 86.3259 94.9475 88.1335 93.0955C89.9486 91.2434 90.5413 88.8471 89.4596 87.7434L80.8806 78.9821C80.1176 78.211 78.7544 78.2866 77.3838 79.0123L72.6794 74.2197L69.6346 77.3266ZM60.6036 48.5555C51.6986 48.5555 44.4828 55.9184 44.4828 65.0048C44.4828 74.0912 51.6986 81.454 60.6036 81.454C69.5086 81.454 76.7245 74.0912 76.7245 65.0048C76.7245 55.9184 69.5086 48.5555 60.6036 48.5555ZM60.6036 77.5836C53.7952 77.5836 48.2759 71.9518 48.2759 65.0048C48.2759 58.0577 53.7952 52.4259 60.6036 52.4259C67.412 52.4259 72.9313 58.0577 72.9313 65.0048C72.9313 71.9518 67.412 77.5836 60.6036 77.5836Z" fill="#00A5E1"/>
<path d="M9.3103 24.2778V64.3889H43.4482M19.1379 22.1667H64.1379M64.1379 22.1667V48.0278M64.1379 22.1667V12.6667H23.7931" stroke="#00A5E1" stroke-width="2"/>
</svg>
